<?xml version="1.0" encoding="utf-8"?>
<!-- Generator: Adobe Illustrator 24.0.2, SVG Export Plug-In . SVG Version: 6.00 Build 0)  -->
<svg version="1.1" id="Layer_1" xmlns="http://www.w3.org/2000/svg" xmlns:xlink="http://www.w3.org/1999/xlink" x="0px" y="0px"
	 viewBox="0 0 760 524" style="enable-background:new 0 0 760 524;" xml:space="preserve">
<style type="text/css">
	.st0{fill:#6F9A86;}
	.st1{fill:#FAFAFA;}
</style>
<rect class="st0" width="760" height="524"/>
<g>
	<path class="st1" d="M163.8,368c-1.2,0-1.9-0.4-2.2-1.1s-0.4-1.6-0.4-2.5v-50.9c0-0.9,0.2-1.7,0.5-2.5s1.1-1.1,2.3-1.1
		c0.8,0,1.4,0.4,1.7,1.2c0.3,0.8,0.4,1.6,0.4,2.5v22.9h65.5v-22.9c0-0.9,0.1-1.7,0.4-2.5c0.3-0.8,0.9-1.1,2-1.1s1.8,0.4,2.1,1.1
		c0.3,0.8,0.4,1.6,0.4,2.5v50.9c0,0.9-0.1,1.7-0.4,2.5c-0.3,0.8-0.9,1.1-2,1.1s-1.8-0.4-2.1-1.1c-0.3-0.8-0.4-1.6-0.4-2.5v-24.8H166
		v24.8c0,0.9-0.2,1.7-0.5,2.5C165.2,367.6,164.7,368,163.8,368L163.8,368z"/>
	<path class="st1" d="M245.2,368c-0.7,0-1.1-0.1-1.3-0.3s-0.2-0.7-0.2-1.5v-53.9c0-1,0.1-1.7,0.2-2c0.1-0.3,0.8-0.5,1.9-0.5h72.1
		c1.1,0,2.1,0,2.9,0.2c0.9,0.1,1.3,0.7,1.3,1.7c0,0.9-0.4,1.4-1.3,1.5s-1.8,0.2-2.9,0.2h-69.4v22.9h69.1c0.8,0,1.5,0.1,2.1,0.3
		s0.9,0.7,0.9,1.4c0,0.8-0.2,1.3-0.7,1.5s-1.1,0.4-1.9,0.4h-69.5v24.9H318c1.1,0,2.1,0,2.9,0.2c0.9,0.1,1.3,0.6,1.3,1.5
		c0,1-0.4,1.6-1.1,1.6c-0.7,0.1-1.6,0.1-2.7,0.2h-73.2L245.2,368L245.2,368z"/>
	<path class="st1" d="M369.9,369c-5.6,0-11.2-0.3-16.7-0.9s-10.4-1.4-14.6-2.3s-7.3-1.7-9.2-2.5c-1.1-0.5-1.6-1.1-1.6-2
		c0-1,0.5-1.5,1.5-1.5c0.3,0,0.6,0,0.8,0.2c2.1,0.7,5.3,1.5,9.6,2.4c4.3,0.9,9.2,1.7,14.7,2.3c5.5,0.6,10.9,1,16.3,1
		s10.2-0.4,14.7-1.3s8.1-2.3,10.9-4.3s4.1-4.8,4.1-8.3c0-2.8-1-4.9-3.1-6.5c-2.1-1.5-4.8-2.7-8.3-3.5s-7.4-1.3-11.8-1.6
		s-8.8-0.5-13.5-0.7s-9.1-0.4-13.5-0.8s-8.3-1-11.8-1.9s-6.3-2.3-8.3-4.1c-2.1-1.8-3.1-4.2-3.1-7.3c0-3.3,1-6.1,3.1-8.3
		c2-2.2,4.8-3.9,8.2-5.1c3.5-1.2,7.3-2.1,11.6-2.6c4.3-0.5,8.7-0.7,13.1-0.7c4.9,0,9.7,0.3,14.3,0.8c4.6,0.5,8.8,1.2,12.5,2
		s6.5,1.6,8.6,2.5c0.6,0.2,1,0.7,1,1.4c0,0.5-0.2,0.9-0.6,1.4s-0.9,0.6-1.6,0.6c-0.4,0-0.7-0.1-1-0.2c-4.2-1.5-9.2-2.7-15.1-3.6
		s-11.9-1.3-17.9-1.3c-5.5,0-10.6,0.4-15.4,1.1c-4.8,0.8-8.6,2.1-11.5,4s-4.4,4.5-4.4,7.8c0,2.4,1,4.3,3.1,5.6
		c2.1,1.3,4.8,2.3,8.3,3s7.4,1.1,11.8,1.4s8.8,0.5,13.5,0.7s9.1,0.6,13.5,1.1s8.3,1.3,11.8,2.4s6.3,2.6,8.3,4.6s3.1,4.7,3.1,7.9
		s-1,6.1-3,8.4c-2,2.2-4.6,4-8,5.3s-7.2,2.2-11.4,2.8C378.8,368.8,374.4,369.1,369.9,369L369.9,369z"/>
	<path class="st1" d="M442.9,368c-0.9,0-1.5-0.4-1.8-1.2c-0.3-0.8-0.5-1.7-0.5-2.7v-50.9h-28.4c-1,0-1.9,0-2.7-0.1s-1.2-0.5-1.2-1.4
		c0-1,0.4-1.6,1.3-1.7s1.7-0.2,2.6-0.2h61.2c1,0,1.9,0.1,2.7,0.2c0.8,0.1,1.1,0.7,1.1,1.7c0,0.9-0.4,1.3-1.1,1.4
		c-0.8,0.1-1.6,0.1-2.7,0.1h-28.3v50.9c0,1-0.1,1.9-0.3,2.7S443.9,368,442.9,368z"/>
	<path class="st1" d="M501.1,368.5c-1.5,0-2.4-0.5-2.5-1.4c-0.2-0.9,0.1-1.8,0.9-2.7l43.8-52c0.8-1,1.5-1.7,2-2.1s1.2-0.6,2.2-0.6
		c0.7,0,1.4,0.2,2,0.5s1.3,1.1,2.2,2.1l43.9,52c0.6,0.7,0.9,1.3,0.9,2c0,1.3,0.1,2-1.7,2c-0.7,0-1.4-0.2-2.2-0.5
		c-0.7-0.3-1.5-0.9-2.2-1.8l-12.5-14.1h-60.7l-12.7,14.3C503.3,367.9,502.8,368.5,501.1,368.5L501.1,368.5z M518.8,348.6H576
		l-28.6-34.3L518.8,348.6L518.8,348.6z"/>
	<path class="st1" d="M489.8,309.5h1c0.9,0,1.6,0.7,1.6,1.6v55.5c0,0.9-0.7,1.6-1.6,1.6h-1c-0.9,0-1.6-0.7-1.6-1.6v-55.5
		C488.1,310.2,488.9,309.5,489.8,309.5z"/>
</g>
<path class="st1" d="M136.9,273.3h1.8c0.8,0,1.4,0.6,1.4,1.4V403c0,0.8-0.6,1.4-1.4,1.4h-1.8c-0.8,0-1.4-0.6-1.4-1.4V274.7
	C135.5,273.9,136.1,273.3,136.9,273.3z"/>
<g>
	<polygon class="st1" points="432.6,242.5 326.6,242.5 322.5,172.1 322.5,246.8 436.8,246.8 436.8,172.1 	"/>
	<polygon class="st1" points="379.6,127.3 293.8,185.1 379.6,114.7 379.7,114.7 465.5,185.1 379.7,127.3 	"/>
</g>
<polygon class="st1" points="350.8,121 333.8,121 333.8,145.5 337.2,124.4 "/>
</svg>
